<svg width="52" height="52" viewBox="0 0 52 52" fill="none" xmlns="http://www.w3.org/2000/svg">
<circle cx="26.054" cy="24.0542" r="2.21313" stroke="black"/>
<mask id="path-2-inside-1_953_815" fill="white">
<path fill-rule="evenodd" clip-rule="evenodd" d="M30.6389 29.4154C32.1504 28.1216 33.1083 26.1997 33.1083 24.0541C33.1083 20.1582 29.95 17 26.0541 17C22.1582 17 19 20.1582 19 24.0541C19 26.2006 19.9587 28.1231 21.4712 29.4169L26.0543 34L30.6389 29.4154Z"/>
</mask>
<path d="M30.6389 29.4154L29.9886 28.6557L29.9592 28.6809L29.9318 28.7083L30.6389 29.4154ZM21.4712 29.4169L22.1783 28.7098L22.1508 28.6823L22.1212 28.657L21.4712 29.4169ZM26.0543 34L25.3472 34.7071L26.0543 35.4142L26.7614 34.7071L26.0543 34ZM32.1083 24.0541C32.1083 25.8953 31.2876 27.5438 29.9886 28.6557L31.2892 30.1751C33.0131 28.6994 34.1083 26.5041 34.1083 24.0541H32.1083ZM26.0541 18C29.3978 18 32.1083 20.7105 32.1083 24.0541H34.1083C34.1083 19.606 30.5023 16 26.0541 16V18ZM20 24.0541C20 20.7105 22.7105 18 26.0541 18V16C21.606 16 18 19.606 18 24.0541H20ZM22.1212 28.657C20.8213 27.5451 20 25.8961 20 24.0541H18C18 26.5051 19.096 28.7012 20.8212 30.1769L22.1212 28.657ZM26.7614 33.2929L22.1783 28.7098L20.7641 30.1241L25.3472 34.7071L26.7614 33.2929ZM29.9318 28.7083L25.3472 33.2929L26.7614 34.7071L31.346 30.1225L29.9318 28.7083Z" fill="black" mask="url(#path-2-inside-1_953_815)"/>
<circle cx="26" cy="26" r="25" stroke="#B9B3B3" stroke-width="0.750234"/>
</svg>
