<svg width="12" height="11" viewBox="0 0 12 11" fill="none" xmlns="http://www.w3.org/2000/svg">
<path d="M3.57766 10.4904C3.74746 9.30471 4.76722 8.39333 5.99984 8.39333C7.23247 8.39333 8.25223 9.30471 8.42203 10.4904L3.57766 10.4904Z" stroke="#9E9C99" stroke-width="0.7"/>
<path d="M6 6.44534V8.42935" stroke="#9E9C99" stroke-width="0.7"/>
<path fill-rule="evenodd" clip-rule="evenodd" d="M2.47195 1.17642H0.7H0V1.87642V2.27449C0 3.83837 1.19662 5.12275 2.7242 5.26199C2.62189 5.02921 2.54829 4.78096 2.50788 4.52173C1.4741 4.29638 0.7 3.37584 0.7 2.27449V1.87642H2.47195V1.17642ZM9.49204 4.52174C10.5259 4.29643 11.3 3.37586 11.3 2.27449V1.87642H9.52798V1.17642H11.3H12V1.87642V2.27449C12 3.83839 10.8033 5.12279 9.27573 5.26199C9.37804 5.02922 9.45164 4.78098 9.49204 4.52174Z" fill="#9E9C99"/>
<path d="M2.82192 0.35H9.17795V4.05603C9.17795 5.51958 7.99151 6.70603 6.52795 6.70603H5.47192C4.00837 6.70603 2.82192 5.51958 2.82192 4.05603V0.35Z" stroke="#9E9C99" stroke-width="0.7"/>
</svg>
