<svg width="12" height="11" viewBox="0 0 12 11" fill="none" xmlns="http://www.w3.org/2000/svg">
<path d="M3.57766 10.4903C3.74746 9.30467 4.76722 8.3933 5.99984 8.3933C7.23247 8.3933 8.25223 9.30467 8.42203 10.4903L3.57766 10.4903Z" stroke="#C09C71" stroke-width="0.7"/>
<path d="M6 6.44537V8.42938" stroke="#C09C71" stroke-width="0.7"/>
<path fill-rule="evenodd" clip-rule="evenodd" d="M2.47195 1.17645H0.7H0V1.87645V2.27452C0 3.8384 1.19662 5.12278 2.7242 5.26202C2.62189 5.02924 2.54829 4.78099 2.50788 4.52176C1.4741 4.29641 0.7 3.37587 0.7 2.27452V1.87645H2.47195V1.17645ZM9.49204 4.52177C10.5259 4.29646 11.3 3.37589 11.3 2.27452V1.87645H9.52798V1.17645H11.3H12V1.87645V2.27452C12 3.83842 10.8033 5.12282 9.27573 5.26202C9.37804 5.02925 9.45164 4.78101 9.49204 4.52177Z" fill="#C09C71"/>
<path d="M2.82192 0.35H9.17795V4.05603C9.17795 5.51958 7.99151 6.70603 6.52795 6.70603H5.47192C4.00837 6.70603 2.82192 5.51958 2.82192 4.05603V0.35Z" stroke="#C09C71" stroke-width="0.7"/>
</svg>
