<svg width="52" height="51" viewBox="0 0 52 51" fill="none" xmlns="http://www.w3.org/2000/svg">
<path d="M29.6509 29.0282L29.421 29.0014C26.7453 28.6893 25.1944 27.2632 24.3255 25.9143C23.8946 25.2452 23.6321 24.5976 23.4769 24.1171C23.3991 23.8762 23.3478 23.6757 23.3155 23.5332C23.2994 23.4619 23.288 23.4049 23.2804 23.3645C23.2766 23.3443 23.2738 23.3282 23.2718 23.3165L23.2695 23.3023L23.2687 23.2978L23.2685 23.2961L23.2684 23.2955C23.2683 23.2952 23.2683 23.2949 23.7626 23.2196L23.2683 23.2949L23.2286 23.0341L23.4214 22.8541L24.2345 22.0953L24.2345 22.0952C24.3361 22.0005 24.4013 21.8842 24.428 21.7629C24.4546 21.642 24.443 21.5161 24.393 21.3993L29.6509 29.0282ZM29.6509 29.0282L29.8201 28.8703L30.6331 28.1115L30.6332 28.1115C30.7351 28.0164 30.8686 27.9478 31.0187 27.919C31.169 27.8902 31.3248 27.9034 31.4655 27.956L33.0392 28.5439L33.0393 28.5439C33.1828 28.5975 33.3003 28.688 33.3803 28.7983C33.46 28.9082 33.5 29.0338 33.5 29.1589V29.1589L33.5 31.8303L33.5 31.8316C33.5002 31.9172 33.4818 32.0029 33.4447 32.0838C33.4075 32.1649 33.3518 32.2406 33.279 32.3051C33.2062 32.3696 33.1181 32.4213 33.0192 32.4553C32.9209 32.4891 32.8152 32.5042 32.7091 32.499C27.3439 32.1868 24.1651 29.9217 22.2647 27.3615C20.3485 24.7801 19.7057 21.8606 19.5043 20.2355C19.4936 20.1476 19.5028 20.0582 19.5319 19.9727C19.5612 19.8869 19.6104 19.8052 19.6787 19.734C19.747 19.6627 19.8328 19.6035 19.9317 19.5624C20.0306 19.5213 20.139 19.4997 20.2495 19.5V19.5H20.2508H23.0623H23.0623C23.2197 19.5 23.3709 19.5442 23.4961 19.6233C23.621 19.7022 23.7122 19.8106 23.7635 19.9303C23.7635 19.9304 23.7635 19.9304 23.7635 19.9304L24.3929 21.3993L29.6509 29.0282Z" stroke="black"/>
<ellipse cx="26" cy="25.7727" rx="25" ry="24.7727" stroke="#B9B3B3" stroke-width="0.750234"/>
</svg>
