<svg width="511" height="66" viewBox="0 0 511 66" fill="none" xmlns="http://www.w3.org/2000/svg">
<path d="M11.7093 51.2187H58.1605V61.5344H0V1.11434H11.7093V51.2187ZM86.8691 56.2462L95.9139 65.2905L104.959 56.2462L95.9139 47.202L86.8691 56.2462ZM510.159 31.3244C510.159 50.6396 493.242 62.6393 473.765 62.6393C454.288 62.6393 437.372 50.6396 437.372 31.3244C437.372 12.0092 454.288 0.00952148 473.765 0.00952148C493.242 0.00952148 510.159 12.0092 510.159 31.3244ZM498.221 31.3244C498.221 17.1869 486.645 10.3253 473.765 10.3253C460.886 10.3252 449.309 17.1869 449.309 31.3244C449.309 45.462 460.885 52.3236 473.765 52.3236C486.645 52.3236 498.221 45.462 498.221 31.3244ZM391.857 35.744L410.304 61.5344H396.663L379.309 36.3197H354.125V61.5344H342.415V1.11434H384.284C402.806 1.11434 406.954 11.2064 406.954 18.724C406.954 26.7846 401.365 34.1493 391.857 35.744ZM384.008 26.4867C387.568 26.4867 395.061 25.1639 395.061 18.5287C395.061 11.8934 387.568 11.0393 384.008 11.0393H354.125V26.4867H384.008ZM203.569 43.39C203.569 56.0077 193.615 61.5345 181.36 61.5345H138.686V1.11434H180.175C187.998 1.11434 200.185 3.61756 200.185 16.7718C200.185 20.5999 197.569 26.5745 193.15 28.3625C197.438 29.8512 203.569 33.573 203.569 43.39ZM150.395 24.2727H179.301C182.801 24.2727 188.291 23.1553 188.291 17.6584C188.291 12.9803 184.978 11.0392 179.393 11.0392H150.395V24.2727ZM191.676 42.4343C191.676 35.7352 186.981 34.1976 181.176 34.1976H150.395V51.6095H181.176C186.591 51.6095 191.676 49.1335 191.676 42.4343ZM291.319 32.3376C291.319 44.9096 287.828 52.3235 270.405 52.3235C252.982 52.3235 249.491 44.9096 249.491 32.3376V1.11434H237.782V34.1309C237.782 51.5932 246.931 62.6393 270.405 62.6393C293.879 62.6393 303.028 51.5932 303.028 34.1309V1.11434H291.319V32.3376Z" fill="black"/>
</svg>
